<svg width="136" height="100" viewBox="0 0 136 100" fill="none" xmlns="http://www.w3.org/2000/svg">
<g filter="url(#filter0_d_165_422)">
<ellipse cx="39.5554" cy="31.625" rx="22.5185" ry="18.975" fill="#F3FEFF"/>
<ellipse cx="83.4075" cy="24.725" rx="29.6296" ry="24.725" fill="#F3FEFF"/>
<path d="M16.3917 89.7001C15.4391 89.7001 14.6667 88.9278 14.6667 87.9751C14.6667 87.0224 15.4391 86.2501 16.3917 86.2501H63.9047C64.8574 86.2501 65.6297 87.0224 65.6297 87.9751C65.6297 88.9278 64.8574 89.7001 63.9047 89.7001H16.3917Z" fill="white"/>
<rect x="64.4446" y="73.6" width="4.6" height="60.4444" rx="2" transform="rotate(-90 64.4446 73.6)" fill="white"/>
<rect x="4" y="32.2001" width="128" height="32.2" rx="16.1" fill="url(#paint0_linear_165_422)"/>
<rect x="14.6667" y="73.6" width="4.6" height="40.2963" rx="2" transform="rotate(-90 14.6667 73.6)" fill="white"/>
<path d="M106.741 82.7999C105.636 82.7999 104.741 81.9045 104.741 80.7999V79.0499C104.741 77.9454 105.636 77.0499 106.741 77.0499H125.259C126.364 77.0499 127.259 77.9454 127.259 79.0499V80.7999C127.259 81.9045 126.364 82.7999 125.259 82.7999H106.741Z" fill="white"/>
<rect x="4" y="82.7999" width="5.75" height="91.2593" rx="2" transform="rotate(-90 4 82.7999)" fill="white"/>
<rect x="76.2964" y="92" width="5.75" height="47.4074" rx="2" transform="rotate(-90 76.2964 92)" fill="white"/>
</g>
<defs>
<filter id="filter0_d_165_422" x="0" y="0" width="136" height="100" filterUnits="userSpaceOnUse" color-interpolation-filters="sRGB">
<feFlood flood-opacity="0" result="BackgroundImageFix"/>
<feColorMatrix in="SourceAlpha" type="matrix" values="0 0 0 0 0 0 0 0 0 0 0 0 0 0 0 0 0 0 127 0" result="hardAlpha"/>
<feOffset dy="4"/>
<feGaussianBlur stdDeviation="2"/>
<feComposite in2="hardAlpha" operator="out"/>
<feColorMatrix type="matrix" values="0 0 0 0 0 0 0 0 0 0 0 0 0 0 0 0 0 0 0.25 0"/>
<feBlend mode="normal" in2="BackgroundImageFix" result="effect1_dropShadow_165_422"/>
<feBlend mode="normal" in="SourceGraphic" in2="effect1_dropShadow_165_422" result="shape"/>
</filter>
<linearGradient id="paint0_linear_165_422" x1="68" y1="38.6401" x2="68" y2="111.09" gradientUnits="userSpaceOnUse">
<stop stop-color="#F3FEFF"/>
<stop offset="1" stop-color="#8EAEEC"/>
</linearGradient>
</defs>
</svg>
