<svg width="124" height="100" viewBox="0 0 124 100" fill="none" xmlns="http://www.w3.org/2000/svg">
<g filter="url(#filter0_d_165_239)">
<ellipse cx="38.5" cy="29.5" rx="20.5" ry="17.5" fill="#F3FEFF"/>
<ellipse cx="78" cy="23" rx="27" ry="23" fill="#F3FEFF"/>
<rect x="4" y="33" width="116" height="30" rx="15" fill="url(#paint0_linear_165_239)"/>
<rect x="31.5505" y="67" width="5" height="10" rx="2" transform="rotate(20 31.5505 67)" fill="#8EAEEC"/>
<rect x="61.675" y="67.1012" width="5" height="10" rx="2" transform="rotate(20 61.675 67.1012)" fill="#8EAEEC"/>
<rect x="92.7994" y="67.2024" width="5" height="10" rx="2" transform="rotate(20 92.7994 67.2024)" fill="#8EAEEC"/>
<rect x="30.4202" y="81" width="5" height="10" rx="2" transform="rotate(20 30.4202 81)" fill="#8EAEEC"/>
<rect x="60.5447" y="81.1012" width="5" height="10" rx="2" transform="rotate(20 60.5447 81.1012)" fill="#8EAEEC"/>
<rect x="91.6692" y="81.2024" width="5" height="10" rx="2" transform="rotate(20 91.6692 81.2024)" fill="#8EAEEC"/>
</g>
<defs>
<filter id="filter0_d_165_239" x="0" y="0" width="124" height="99.7466" filterUnits="userSpaceOnUse" color-interpolation-filters="sRGB">
<feFlood flood-opacity="0" result="BackgroundImageFix"/>
<feColorMatrix in="SourceAlpha" type="matrix" values="0 0 0 0 0 0 0 0 0 0 0 0 0 0 0 0 0 0 127 0" result="hardAlpha"/>
<feOffset dy="4"/>
<feGaussianBlur stdDeviation="2"/>
<feComposite in2="hardAlpha" operator="out"/>
<feColorMatrix type="matrix" values="0 0 0 0 0 0 0 0 0 0 0 0 0 0 0 0 0 0 0.25 0"/>
<feBlend mode="normal" in2="BackgroundImageFix" result="effect1_dropShadow_165_239"/>
<feBlend mode="normal" in="SourceGraphic" in2="effect1_dropShadow_165_239" result="shape"/>
</filter>
<linearGradient id="paint0_linear_165_239" x1="62" y1="39" x2="62" y2="106.5" gradientUnits="userSpaceOnUse">
<stop stop-color="#F3FEFF"/>
<stop offset="1" stop-color="#8EAEEC"/>
</linearGradient>
</defs>
</svg>
