<svg width="116" height="91" viewBox="0 0 116 91" fill="none" xmlns="http://www.w3.org/2000/svg">
<path d="M61 87.2083C61 89.3024 59.433 91 57.5 91C55.567 91 54 89.3024 54 87.2083C54 85.1142 55.567 83.4166 57.5 83.4166C59.433 83.4166 61 85.1142 61 87.2083Z" fill="white"/>
<path d="M86 87.2083C86 89.3024 84.433 91 82.5 91C80.567 91 79 89.3024 79 87.2083C79 85.1142 80.567 83.4166 82.5 83.4166C84.433 83.4166 86 85.1142 86 87.2083Z" fill="white"/>
<path d="M36 87.2083C36 89.3024 34.433 91 32.5 91C30.567 91 29 89.3024 29 87.2083C29 85.1142 30.567 83.4166 32.5 83.4166C34.433 83.4166 36 85.1142 36 87.2083Z" fill="white"/>
<ellipse cx="18.5813" cy="74.2084" rx="4.58133" ry="4.875" fill="white"/>
<path d="M50.1627 74.2084C50.1627 76.9008 48.1115 79.0834 45.5813 79.0834C43.0511 79.0834 41 76.9008 41 74.2084C41 71.516 43.0511 69.3334 45.5813 69.3334C48.1115 69.3334 50.1627 71.516 50.1627 74.2084Z" fill="white"/>
<ellipse cx="73.5813" cy="74.2084" rx="4.58133" ry="4.875" fill="white"/>
<ellipse cx="100.581" cy="74.2084" rx="4.58133" ry="4.875" fill="white"/>
<ellipse cx="34.5" cy="31.9583" rx="20.5" ry="18.9583" fill="#F3FEFF"/>
<ellipse cx="74" cy="24.9167" rx="27" ry="24.9167" fill="#F3FEFF"/>
<rect y="35.75" width="116" height="30.3333" rx="15.1667" fill="url(#paint0_linear_173_52)"/>
<defs>
<linearGradient id="paint0_linear_173_52" x1="58" y1="41.8167" x2="58" y2="110.067" gradientUnits="userSpaceOnUse">
<stop stop-color="#F3FEFF"/>
<stop offset="1" stop-color="#8EAEEC"/>
</linearGradient>
</defs>
</svg>
