<svg width="93" height="95" viewBox="0 0 93 95" fill="none" xmlns="http://www.w3.org/2000/svg">
<g filter="url(#filter0_d_266_120)">
<rect x="89" y="41" width="5" height="15" rx="2" transform="rotate(90 89 41)" fill="url(#paint0_linear_266_120)"/>
<rect x="19" y="41" width="5" height="15" rx="2" transform="rotate(90 19 41)" fill="url(#paint1_linear_266_120)"/>
<rect x="44" y="72" width="5" height="15" rx="2" fill="url(#paint2_linear_266_120)"/>
<rect x="44" width="5" height="15" rx="2" fill="url(#paint3_linear_266_120)"/>
<rect x="21.0713" y="62" width="4.44444" height="10" rx="2" transform="rotate(45 21.0713 62)" fill="url(#paint4_linear_266_120)"/>
<rect x="76.0713" y="17" width="4.44444" height="10" rx="2" transform="rotate(45 76.0713 17)" fill="url(#paint5_linear_266_120)"/>
<rect x="69" y="65" width="4.44444" height="10" rx="2" transform="rotate(-45 69 65)" fill="url(#paint6_linear_266_120)"/>
<rect x="14.3335" y="19.7778" width="4.44444" height="10" rx="2" transform="rotate(-45 14.3335 19.7778)" fill="url(#paint7_linear_266_120)"/>
<circle cx="47" cy="44" r="25" fill="url(#paint8_linear_266_120)"/>
</g>
<defs>
<filter id="filter0_d_266_120" x="0" y="0" width="93" height="95" filterUnits="userSpaceOnUse" color-interpolation-filters="sRGB">
<feFlood flood-opacity="0" result="BackgroundImageFix"/>
<feColorMatrix in="SourceAlpha" type="matrix" values="0 0 0 0 0 0 0 0 0 0 0 0 0 0 0 0 0 0 127 0" result="hardAlpha"/>
<feOffset dy="4"/>
<feGaussianBlur stdDeviation="2"/>
<feComposite in2="hardAlpha" operator="out"/>
<feColorMatrix type="matrix" values="0 0 0 0 0 0 0 0 0 0 0 0 0 0 0 0 0 0 0.25 0"/>
<feBlend mode="normal" in2="BackgroundImageFix" result="effect1_dropShadow_266_120"/>
<feBlend mode="normal" in="SourceGraphic" in2="effect1_dropShadow_266_120" result="shape"/>
</filter>
<linearGradient id="paint0_linear_266_120" x1="91.2" y1="45.95" x2="102.61" y2="56.8705" gradientUnits="userSpaceOnUse">
<stop stop-color="#FFDF5F"/>
<stop offset="1" stop-color="#FFA800"/>
</linearGradient>
<linearGradient id="paint1_linear_266_120" x1="21.2" y1="45.95" x2="32.61" y2="56.8705" gradientUnits="userSpaceOnUse">
<stop stop-color="#FFDF5F"/>
<stop offset="1" stop-color="#FFA800"/>
</linearGradient>
<linearGradient id="paint2_linear_266_120" x1="46.2" y1="76.95" x2="57.61" y2="87.8705" gradientUnits="userSpaceOnUse">
<stop stop-color="#FFDF5F"/>
<stop offset="1" stop-color="#FFA800"/>
</linearGradient>
<linearGradient id="paint3_linear_266_120" x1="46.2" y1="4.95" x2="57.61" y2="15.8705" gradientUnits="userSpaceOnUse">
<stop stop-color="#FFDF5F"/>
<stop offset="1" stop-color="#FFA800"/>
</linearGradient>
<linearGradient id="paint4_linear_266_120" x1="23.0268" y1="65.3" x2="30.4199" y2="74.7346" gradientUnits="userSpaceOnUse">
<stop stop-color="#FFDF5F"/>
<stop offset="1" stop-color="#FFA800"/>
</linearGradient>
<linearGradient id="paint5_linear_266_120" x1="78.0268" y1="20.3" x2="85.4199" y2="29.7346" gradientUnits="userSpaceOnUse">
<stop stop-color="#FFDF5F"/>
<stop offset="1" stop-color="#FFA800"/>
</linearGradient>
<linearGradient id="paint6_linear_266_120" x1="70.9556" y1="68.3" x2="78.3486" y2="77.7346" gradientUnits="userSpaceOnUse">
<stop stop-color="#FFDF5F"/>
<stop offset="1" stop-color="#FFA800"/>
</linearGradient>
<linearGradient id="paint7_linear_266_120" x1="16.2891" y1="23.0778" x2="23.6821" y2="32.5124" gradientUnits="userSpaceOnUse">
<stop stop-color="#FFDF5F"/>
<stop offset="1" stop-color="#FFA800"/>
</linearGradient>
<linearGradient id="paint8_linear_266_120" x1="44" y1="35.5" x2="67.6489" y2="103.403" gradientUnits="userSpaceOnUse">
<stop stop-color="#FFDF5F"/>
<stop offset="1" stop-color="#FFA800"/>
</linearGradient>
</defs>
</svg>
