<svg width="116" height="92" viewBox="0 0 116 92" fill="none" xmlns="http://www.w3.org/2000/svg">
<g filter="url(#filter0_d_266_57)">
<path d="M68 30.9134V33.4134H68.0085L68.0169 33.4133L68 30.9134ZM68 3.35403L67.3852 5.77725L67.6878 5.85403L68 5.85403L68 3.35403ZM66.9709 22.8093C68.3269 22.5492 69.2153 21.2391 68.9552 19.8831C68.6952 18.5271 67.3851 17.6387 66.0291 17.8988L66.9709 22.8093ZM15 33.4134H68V28.4134H15V33.4134ZM68 30.9134C68.0169 33.4133 68.0185 33.4133 68.0201 33.4133C68.0207 33.4133 68.0224 33.4133 68.0236 33.4133C68.026 33.4132 68.0286 33.4132 68.0314 33.4132C68.0369 33.4131 68.0432 33.413 68.0501 33.4129C68.0641 33.4127 68.0809 33.4123 68.1005 33.4118C68.1396 33.4108 68.1898 33.409 68.2504 33.406C68.3716 33.4002 68.5347 33.3895 68.7339 33.3703C69.1314 33.332 69.6778 33.2591 70.3242 33.1196C71.6093 32.8423 73.3408 32.2909 75.0884 31.1832C78.7368 28.8708 82 24.4197 82 16.4133H77C77 22.8291 74.5132 25.6281 72.4116 26.9601C71.2842 27.6747 70.1407 28.0441 69.2695 28.2321C68.8379 28.3253 68.4858 28.3711 68.2544 28.3934C68.1391 28.4045 68.0552 28.4096 68.0079 28.4119C67.9842 28.4131 67.9699 28.4135 67.9655 28.4136C67.9633 28.4137 67.9636 28.4137 67.9665 28.4136C67.968 28.4136 67.9701 28.4136 67.9728 28.4135C67.9742 28.4135 67.9757 28.4135 67.9774 28.4135C67.9783 28.4135 67.9797 28.4135 67.9801 28.4135C67.9816 28.4135 67.9831 28.4134 68 30.9134ZM82 16.4133C82 13.4082 82.0677 9.38384 80.2218 6.2202C78.1587 2.68448 74.2192 0.854047 68 0.854032L68 5.85403C73.2808 5.85404 75.0913 7.34852 75.9032 8.74006C76.9323 10.5037 77 13.0089 77 16.4133H82ZM68 3.35403C68.6148 0.930816 68.6137 0.930537 68.6126 0.930247C68.6121 0.930135 68.611 0.929834 68.6101 0.929611C68.6083 0.929166 68.6064 0.928676 68.6042 0.928144C68.6 0.927079 68.595 0.925843 68.5893 0.924444C68.5779 0.921645 68.5637 0.918194 68.5468 0.914155C68.5129 0.906079 68.468 0.895644 68.4128 0.883388C68.3026 0.858896 68.1506 0.827009 67.9628 0.792095C67.5883 0.722475 67.0651 0.639648 66.4408 0.580028C65.2133 0.462806 63.4926 0.424953 61.7106 0.818712C59.917 1.21503 57.9279 2.08141 56.3962 3.87403C54.847 5.68718 54 8.17323 54 11.354H59C59 9.07589 59.5905 7.83248 60.1975 7.12208C60.8221 6.39115 61.708 5.93989 62.7894 5.70095C63.8824 5.45944 65.0367 5.46869 65.9655 5.55738C66.4193 5.60072 66.7945 5.66056 67.0489 5.70786C67.1756 5.73141 67.2707 5.75155 67.3288 5.76447C67.3579 5.77092 67.3776 5.77553 67.3872 5.77783C67.392 5.77898 67.3943 5.77955 67.394 5.77947C67.3939 5.77944 67.3931 5.77924 67.3916 5.77887C67.3909 5.77868 67.3899 5.77846 67.3889 5.77819C67.3883 5.77805 67.3874 5.77782 67.3871 5.77775C67.3862 5.7775 67.3852 5.77725 68 3.35403ZM54 11.354C54 14.4677 54.7165 16.9234 56.0064 18.7883C57.3003 20.6592 59.0249 21.7239 60.6655 22.3048C62.2797 22.8764 63.8435 22.994 64.9621 22.983C65.5304 22.9774 66.0082 22.9383 66.353 22.8991C66.526 22.8794 66.6673 22.8594 66.7716 22.8432C66.8238 22.8351 66.8669 22.8279 66.9003 22.8221C66.917 22.8192 66.9313 22.8166 66.9431 22.8145C66.949 22.8134 66.9542 22.8124 66.9589 22.8115C66.9612 22.8111 66.9634 22.8107 66.9654 22.8103C66.9664 22.8101 66.9678 22.8099 66.9682 22.8098C66.9696 22.8095 66.9709 22.8093 66.5 20.354C66.0291 17.8988 66.0303 17.8985 66.0315 17.8983C66.0319 17.8982 66.033 17.898 66.0337 17.8979C66.0351 17.8976 66.0364 17.8974 66.0375 17.8972C66.0397 17.8967 66.0413 17.8964 66.0424 17.8962C66.0446 17.8958 66.0445 17.8959 66.0423 17.8963C66.0379 17.897 66.0248 17.8993 66.0038 17.9025C65.9617 17.9091 65.8881 17.9197 65.7876 17.9311C65.5856 17.9541 65.2821 17.9796 64.9129 17.9832C64.1565 17.9906 63.2203 17.9053 62.3345 17.5916C61.4751 17.2873 60.6997 16.7844 60.1186 15.9442C59.5335 15.0981 59 13.6993 59 11.354H54Z" fill="white"/>
<path d="M98.8372 41.4207V43.9208L98.8511 43.9207L98.8372 41.4207ZM98.8372 17.4207L98.4027 19.8827L98.6183 19.9207H98.8372V17.4207ZM99.5834 33.284C100.901 32.8719 101.635 31.4695 101.223 30.1517C100.811 28.834 99.4088 28.0998 98.091 28.5119L99.5834 33.284ZM52 43.9207H98.8372V38.9207H52V43.9207ZM98.8372 41.4207C98.8511 43.9207 98.8524 43.9207 98.8537 43.9207C98.8542 43.9207 98.8556 43.9207 98.8566 43.9207C98.8586 43.9206 98.8608 43.9206 98.8631 43.9206C98.8677 43.9206 98.873 43.9205 98.8789 43.9204C98.8907 43.9203 98.905 43.92 98.9218 43.9196C98.9553 43.9189 98.9986 43.9176 99.051 43.9156C99.1558 43.9114 99.2975 43.9038 99.4711 43.8901C99.8173 43.8627 100.295 43.8104 100.861 43.71C101.983 43.5113 103.514 43.1134 105.073 42.3018C106.643 41.4844 108.278 40.2275 109.513 38.3127C110.756 36.3856 111.5 33.9373 111.5 30.8979H106.5C106.5 33.0917 105.974 34.5753 105.311 35.6025C104.641 36.6419 103.735 37.3616 102.764 37.8666C101.783 38.3774 100.773 38.6478 99.9889 38.7867C99.6025 38.8552 99.2862 38.8891 99.0767 38.9057C98.9724 38.9139 98.8958 38.9178 98.8517 38.9195C98.8297 38.9204 98.8159 38.9208 98.8109 38.9209C98.8085 38.9209 98.8082 38.9209 98.8102 38.9209C98.8113 38.9209 98.8128 38.9209 98.815 38.9208C98.8161 38.9208 98.8173 38.9208 98.8187 38.9208C98.8194 38.9208 98.8206 38.9208 98.8209 38.9208C98.8221 38.9208 98.8233 38.9208 98.8372 41.4207ZM111.5 30.8979C111.5 28.6687 111.537 24.7415 110.005 21.3784C109.207 19.6273 107.961 17.9636 106.045 16.757C104.136 15.5547 101.744 14.9207 98.8372 14.9207V19.9207C101.012 19.9207 102.431 20.39 103.38 20.9878C104.323 21.5815 104.982 22.4149 105.455 23.4517C106.463 25.6644 106.5 28.4758 106.5 30.8979H111.5ZM98.8372 17.4207C99.2717 14.9588 99.2708 14.9586 99.2698 14.9584C99.2694 14.9584 99.2684 14.9582 99.2676 14.9581C99.2661 14.9578 99.2644 14.9575 99.2625 14.9572C99.2587 14.9565 99.2543 14.9558 99.2492 14.9549C99.2391 14.9532 99.2263 14.951 99.2109 14.9485C99.1801 14.9434 99.139 14.9369 99.0883 14.9292C98.987 14.914 98.8467 14.8942 98.673 14.8731C98.3265 14.831 97.842 14.783 97.2641 14.7552C96.1258 14.7004 94.5423 14.7195 92.9082 15.0603C91.2892 15.398 89.4248 16.0926 87.9447 17.5411C86.3973 19.0555 85.5 21.1698 85.5 23.8539H90.5C90.5 22.3652 90.9574 21.5888 91.4419 21.1146C91.9938 20.5744 92.8387 20.1824 93.929 19.955C95.0042 19.7307 96.13 19.7064 97.0237 19.7494C97.4618 19.7705 97.8239 19.8067 98.0701 19.8366C98.1927 19.8515 98.2853 19.8647 98.3427 19.8733C98.3713 19.8777 98.3911 19.8808 98.4014 19.8825C98.4065 19.8834 98.4092 19.8838 98.4095 19.8839C98.4096 19.8839 98.4091 19.8838 98.408 19.8836C98.4074 19.8835 98.4067 19.8834 98.4058 19.8832C98.4054 19.8832 98.4046 19.883 98.4044 19.883C98.4036 19.8828 98.4027 19.8827 98.8372 17.4207ZM85.5 23.8539C85.5 26.8992 86.2988 29.2906 87.8202 31.0118C89.3273 32.7169 91.2777 33.4627 93.0029 33.7536C94.7151 34.0423 96.3586 33.9129 97.5203 33.736C98.1128 33.6458 98.6091 33.5386 98.9641 33.452C99.1422 33.4085 99.2863 33.3698 99.391 33.3405C99.4434 33.3257 99.4861 33.3133 99.5184 33.3037C99.5345 33.2989 99.548 33.2949 99.5589 33.2915C99.5643 33.2899 99.5691 33.2884 99.5732 33.2872C99.5752 33.2865 99.5771 33.2859 99.5788 33.2854C99.5797 33.2851 99.5808 33.2848 99.5812 33.2847C99.5824 33.2843 99.5834 33.284 98.8372 30.8979C98.091 28.5119 98.092 28.5116 98.0929 28.5113C98.0932 28.5112 98.0941 28.5109 98.0946 28.5108C98.0957 28.5104 98.0965 28.5102 98.0973 28.5099C98.0987 28.5095 98.0996 28.5092 98.0998 28.5092C98.1003 28.509 98.0983 28.5096 98.0939 28.5109C98.0851 28.5135 98.0669 28.5189 98.04 28.5264C97.9859 28.5416 97.8973 28.5656 97.779 28.5944C97.5413 28.6524 97.1909 28.7285 96.7675 28.793C95.8973 28.9255 94.8314 28.9913 93.8343 28.8232C92.8502 28.6573 92.0913 28.2941 91.5665 27.7004C91.0558 27.1227 90.5 26.0253 90.5 23.8539H85.5Z" fill="white"/>
<path d="M92.7491 49.3936L92.7426 46.8935L92.7555 46.8936L92.7491 49.3936ZM92.7869 80.8539L92.3359 78.395L92.6668 78.3343L93.002 78.3632L92.7869 80.8539ZM79.9999 71.354L82.4999 71.354L79.9999 71.354ZM94.6582 62.2829C95.5738 63.3164 95.4781 64.8964 94.4446 65.8119C93.4111 66.7275 91.8311 66.6318 90.9155 65.5983L94.6582 62.2829ZM22.4577 47.076L92.7426 46.8936L92.7556 51.8936L22.4707 52.0759L22.4577 47.076ZM92.7491 49.3936C92.7555 46.8936 92.7567 46.8936 92.7579 46.8936C92.7585 46.8936 92.7598 46.8936 92.7608 46.8936C92.7628 46.8936 92.7651 46.8936 92.7676 46.8936C92.7726 46.8937 92.7785 46.8937 92.7853 46.8938C92.799 46.8939 92.8164 46.8941 92.8374 46.8945C92.8795 46.8953 92.9359 46.8966 93.0057 46.899C93.1454 46.9038 93.3393 46.9127 93.5798 46.9296C94.0599 46.9634 94.7304 47.029 95.529 47.1573C97.1141 47.4118 99.2677 47.9229 101.454 48.9644C103.647 50.009 105.936 51.6181 107.677 54.091C109.434 56.5861 110.527 59.8119 110.537 63.8945L105.537 63.9075C105.529 60.7557 104.702 58.5509 103.589 56.9693C102.459 55.3656 100.928 54.2521 99.3041 53.4785C97.6733 52.7017 96.0119 52.2989 94.7363 52.094C94.1045 51.9926 93.5833 51.9422 93.2292 51.9173C93.0526 51.9049 92.9188 51.8989 92.8351 51.8961C92.7932 51.8946 92.764 51.894 92.7483 51.8937C92.7405 51.8936 92.736 51.8935 92.735 51.8935C92.7346 51.8935 92.735 51.8935 92.7363 51.8935C92.7369 51.8935 92.7378 51.8935 92.7389 51.8935C92.7394 51.8935 92.7404 51.8936 92.7407 51.8936C92.7417 51.8936 92.7428 51.8936 92.7491 49.3936ZM110.537 63.8945C110.546 67.1228 110.54 70.0406 110.268 72.5085C109.997 74.9683 109.435 77.2952 108.111 79.1882C105.295 83.2136 100.068 83.9922 92.5717 83.3447L93.002 78.3632C100.539 79.0143 102.954 77.8375 104.014 76.3223C104.627 75.4449 105.061 74.1053 105.298 71.9608C105.533 69.8245 105.546 67.2003 105.537 63.9075L110.537 63.8945ZM92.7869 80.8539C93.2379 83.3129 93.2368 83.3131 93.2356 83.3133C93.2351 83.3134 93.2339 83.3137 93.233 83.3138C93.2312 83.3142 93.2291 83.3145 93.2269 83.3149C93.2224 83.3157 93.2172 83.3167 93.2111 83.3177C93.199 83.3199 93.1838 83.3225 93.1655 83.3256C93.129 83.3317 93.0803 83.3396 93.0203 83.3488C92.9002 83.3671 92.7341 83.3905 92.5286 83.4146C92.1184 83.4627 91.5451 83.5144 90.8614 83.5343C89.5125 83.5734 87.6425 83.4914 85.7198 82.9535C83.7888 82.4133 81.6874 81.378 80.0733 79.4312C78.4373 77.458 77.4999 74.7867 77.4999 71.354L82.4999 71.354C82.4999 73.8439 83.1608 75.3214 83.9224 76.2399C84.7059 77.1849 85.8012 77.7843 87.0669 78.1384C88.341 78.4948 89.6677 78.5668 90.7164 78.5364C91.2315 78.5214 91.6572 78.4825 91.9463 78.4486C92.0904 78.4317 92.1991 78.4162 92.2663 78.406C92.2999 78.4009 92.323 78.3971 92.3349 78.3951C92.3408 78.3941 92.3439 78.3935 92.3441 78.3935C92.3442 78.3935 92.3436 78.3936 92.3422 78.3938C92.3415 78.3939 92.3407 78.3941 92.3396 78.3943C92.3391 78.3944 92.3381 78.3945 92.3379 78.3946C92.3369 78.3948 92.3359 78.395 92.7869 80.8539ZM77.4999 71.354C77.4999 64.8573 80.1689 60.752 84.287 59.4066C88.066 58.172 92.2809 59.5993 94.6582 62.2829L90.9155 65.5983C89.7461 64.2782 87.5675 63.5949 85.8397 64.1594C84.451 64.6131 82.4999 66.2164 82.4999 71.354L77.4999 71.354Z" fill="white"/>
<path d="M7 41.354L44 41.354" stroke="white" stroke-width="5" stroke-linecap="square"/>
</g>
<defs>
<filter id="filter0_d_266_57" x="0.5" y="0.5" width="115" height="91.0475" filterUnits="userSpaceOnUse" color-interpolation-filters="sRGB">
<feFlood flood-opacity="0" result="BackgroundImageFix"/>
<feColorMatrix in="SourceAlpha" type="matrix" values="0 0 0 0 0 0 0 0 0 0 0 0 0 0 0 0 0 0 127 0" result="hardAlpha"/>
<feOffset dy="4"/>
<feGaussianBlur stdDeviation="2"/>
<feComposite in2="hardAlpha" operator="out"/>
<feColorMatrix type="matrix" values="0 0 0 0 0 0 0 0 0 0 0 0 0 0 0 0 0 0 0.25 0"/>
<feBlend mode="normal" in2="BackgroundImageFix" result="effect1_dropShadow_266_57"/>
<feBlend mode="normal" in="SourceGraphic" in2="effect1_dropShadow_266_57" result="shape"/>
</filter>
</defs>
</svg>
